#!OML:ASF C:\Vicon Data\Big\jianyuan-11\jianyuan\Session 1\male.ASF
:FULLY-SPECIFIED
:DEGREES
70
root -9.098589 16.038705 -18.232691 -11.106751 -18.045385 9.209840
lowerback 4.252761 3.159447 -2.894986 
upperback 6.486518 4.545627 -0.570322 
thorax 4.160257 2.304938 1.004277 
lowerneck -10.255409 -10.713171 -12.617463 
upperneck 23.231617 -14.893301 12.790930 
head 11.170853 -6.320005 4.712482 
rclavicle 0.000000 0.000000 
rhumerus -35.047742 -23.947962 -81.430081 
rradius 45.219856 
rwrist -6.011391 
rhand -16.694533 0.279876 
rfingers 0.000000 
rthumb 9.530101 -29.484614 
lclavicle 0.000000 0.000000 
lhumerus -30.478675 43.557265 69.691101 
lradius 20.699301 
lwrist -45.529420 
lhand -11.650432 -9.797141 
lfingers 0.000000 
lthumb 14.393828 19.683816 
rfemur -1.384601 4.796072 31.851455 
rtibia 35.262930 
rfoot -12.044666 -5.592616 
rtoes 17.541209 
lfemur -20.195427 -9.980471 -16.512669 
ltibia 56.558713 
lfoot -14.635111 6.009732 
ltoes -4.102520 
71
root -9.120060 16.052957 -18.154875 -11.071415 -18.549527 9.333852
lowerback 4.103439 3.251045 -2.876719 
upperback 6.487778 4.671014 -0.590448 
thorax 4.244065 2.365693 0.982220 
lowerneck -10.377161 -10.661861 -12.600446 
upperneck 23.233560 -14.808007 12.746594 
head 11.176708 -6.282402 4.702213 
rclavicle 0.000000 0.000000 
rhumerus -34.854317 -23.706427 -81.576034 
rradius 45.414634 
rwrist -5.906423 
rhand -16.748622 0.309807 
rfingers 0.000000 
rthumb 9.477928 -29.457037 
lclavicle 0.000000 0.000000 
lhumerus -31.865262 45.217697 68.059128 
lradius 20.258756 
lwrist -47.220359 
lhand -11.578301 -9.964031 
lfingers 0.000000 
lthumb 14.463277 19.511905 
rfemur -0.907247 4.994155 31.768131 
rtibia 34.845363 
rfoot -11.923258 -5.347580 
rtoes 18.182799 
lfemur -20.434912 -10.297957 -16.645690 
ltibia 55.485827 
lfoot -15.071326 5.955563 
ltoes -3.981278 
72
root -9.142292 16.065605 -18.078868 -11.087845 -19.090232 9.380584
lowerback 4.088552 3.342759 -2.760301 
upperback 6.477514 4.792683 -0.606041 
thorax 4.247422 2.430859 0.901294 
lowerneck -10.369680 -10.625054 -12.622345 
upperneck 23.166065 -14.759685 12.783323 
head 11.147684 -6.262978 4.726203 
rclavicle 0.000000 0.000000 
rhumerus -34.737864 -23.481045 -81.730229 
rradius 45.731172 
rwrist -6.168316 
rhand -16.605086 0.184722 
rfingers 0.000000 
rthumb 9.616378 -29.575764 
lclavicle 0.000000 0.000000 
lhumerus -33.537999 46.901001 66.067400 
lradius 19.871920 
lwrist -49.226666 
lhand -11.534958 -10.253861 
lfingers 0.000000 
lthumb 14.505042 19.219105 
rfemur -0.365227 5.163103 31.779452 
rtibia 34.429169 
rfoot -11.760797 -5.189987 
rtoes 18.372606 
lfemur -20.563102 -10.573338 -16.686437 
ltibia 54.365785 
lfoot -15.204312 6.027739 
ltoes -6.198782 
73
root -9.166898 16.077593 -18.004096 -11.068678 -19.597809 9.387115
lowerback 4.057785 3.421143 -2.659131 
upperback 6.458800 4.895113 -0.608574 
thorax 4.249479 2.484958 0.843301 
lowerneck -10.345694 -10.577858 -12.561409 
upperneck 23.079990 -14.694683 12.746202 
head 11.091789 -6.238273 4.712460 
rclavicle 0.000000 0.000000 
rhumerus -34.612822 -23.245362 -81.896808 
rradius 45.942166 
rwrist -6.182381 
rhand -16.520532 0.161857 
rfingers 0.000000 
rthumb 9.697936 -29.594877 
lclavicle 0.000000 0.000000 
lhumerus -35.169286 48.235860 64.193674 
lradius 19.557169 
lwrist -50.787763 
lhand -11.595404 -10.250361 
lfingers 0.000000 
lthumb 14.446828 19.226764 
rfemur 0.153917 5.293862 31.836148 
rtibia 34.004204 
rfoot -11.623722 -5.133330 
rtoes 17.999546 
lfemur -20.709402 -10.821613 -16.678419 
ltibia 53.196023 
lfoot -15.437266 5.999510 
ltoes -6.710079 
74
root -9.192025 16.091004 -17.930625 -11.060723 -20.048440 9.463769
lowerback 3.999611 3.485133 -2.646703 
upperback 6.469118 4.981888 -0.614573 
thorax 4.291915 2.527561 0.834145 
lowerneck -10.457393 -10.532048 -12.488435 
upperneck 23.049234 -14.615594 12.650891 
head 11.074931 -6.206432 4.672652 
rclavicle 0.000000 0.000000 
rhumerus -34.373874 -22.988490 -82.065374 
rradius 46.103068 
rwrist -6.303356 
rhand -16.509819 0.206327 
rfingers 0.000000 
rthumb 9.708292 -29.549942 
lclavicle 0.000000 0.000000 
lhumerus -36.766884 49.474106 62.401649 
lradius 19.288225 
lwrist -52.104392 
lhand -11.600480 -10.176725 
lfingers 0.000000 
lthumb 14.441971 19.300714 
rfemur 0.660419 5.369502 31.804868 
rtibia 33.564778 
rfoot -11.461768 -5.072310 
rtoes 17.635372 
lfemur -20.870035 -11.063376 -16.752708 
ltibia 51.988621 
lfoot -15.743869 5.922489 
ltoes -6.204347 
